<svg width="60" height="60" viewBox="0 0 60 60" fill="none" xmlns="http://www.w3.org/2000/svg">
<path d="M41 28.0015C33.832 28.0015 28 33.8335 28 41.0015C28 48.1695 33.832 54.0015 41 54.0015C48.168 54.0015 54 48.1695 54 41.0015C54 33.8335 48.168 28.0015 41 28.0015ZM40.75 39.5015H41.25C43.318 39.5015 45 41.1835 45 43.2515C45 44.8775 43.952 46.2535 42.5 46.7715V47.5015C42.5 48.3295 41.828 49.0015 41 49.0015C40.172 49.0015 39.5 48.3295 39.5 47.5015V47.0015H38.5C37.672 47.0015 37 46.3295 37 45.5015C37 44.6735 37.672 44.0015 38.5 44.0015H41.25C41.664 44.0015 42 43.6655 42 43.2515C42 42.8375 41.664 42.5015 41.25 42.5015H40.75C38.682 42.5015 37 40.8195 37 38.7515C37 37.1255 38.048 35.7495 39.5 35.2315V34.5015C39.5 33.6735 40.172 33.0015 41 33.0015C41.828 33.0015 42.5 33.6735 42.5 34.5015V35.0015H43.5C44.328 35.0015 45 35.6735 45 36.5015C45 37.3295 44.328 38.0015 43.5 38.0015H40.75C40.336 38.0015 40 38.3375 40 38.7515C40 39.1655 40.336 39.5015 40.75 39.5015Z" fill="#F7A804"/>
<path d="M40 17.9175V10.0015C40 8.8955 39.104 8.0015 38 8.0015C36.896 8.0015 36 8.8955 36 10.0015V14.0055L28.398 6.5715C27.62 5.8095 26.378 5.8095 25.602 6.5715L6.878 24.8755C6.32 25.4395 6 26.2135 6 27.0015C6 28.6555 7.346 30.0015 9 30.0015H12V41.0015C12 43.7595 14.244 46.0015 17 46.0015H22C23.104 46.0015 24 45.1075 24 44.0015C24 42.8955 23.104 42.0015 22 42.0015H17C16.448 42.0015 16 41.5515 16 41.0015V28.0015C16 26.8955 15.104 26.0015 14 26.0015H11.446L27 10.7975L40.102 23.6095C40.894 24.3835 42.158 24.3695 42.93 23.5775C43.702 22.7875 43.688 21.5215 42.898 20.7495L40 17.9175Z" fill="#3B3C45"/>
</svg>
