<svg width="60" height="60" viewBox="0 0 60 60" fill="none" xmlns="http://www.w3.org/2000/svg">
<path d="M45.5532 23.7604L30.0003 10.8681L14.4475 23.7604V30.5453H10.6997V26.867L8.39176 28.7805L6 25.8951L30.0003 6L54.0007 25.8951L51.6089 28.7805L49.301 26.867V30.5453H45.5532V23.7604ZM19.6943 53.9685H28.2202V50.2206H23.4418V44.9738H28.2202V41.2263H23.4418V37.4785H28.2202V33.731H19.6943V53.9685ZM44.0543 37.4785H47.1462V53.9685H50.8937V37.4785H53.9857V33.731H44.0543V37.4785ZM14.0666 44.4212L17.3216 53.9685H13.362L10.2957 44.9742H9.76287V53.9685H6.01501V33.731H11.6368C14.7365 33.731 17.2582 36.2528 17.2582 39.3524C17.2582 41.5823 15.953 43.513 14.0666 44.4212ZM9.76287 41.2263H11.6368C12.6699 41.2263 13.5104 40.3855 13.5104 39.3524C13.5104 38.3193 12.6699 37.4785 11.6368 37.4785H9.76287V41.2263ZM37.9641 43.1797L34.5726 33.8409L34.4975 33.868V33.731H30.75V53.9685H34.4975V44.6131L37.8894 53.9523L37.9641 53.9252V53.9685H41.7119V33.731H37.9641V43.1797Z" fill="#3B3C45"/>
<mask id="mask0_103_58" style="mask-type:alpha" maskUnits="userSpaceOnUse" x="6" y="6" width="49" height="48">
<path d="M45.5532 23.7604L30.0003 10.8681L14.4475 23.7604V30.5453H10.6997V26.867L8.39176 28.7805L6 25.8951L30.0003 6L54.0007 25.8951L51.6089 28.7805L49.301 26.867V30.5453H45.5532V23.7604ZM19.6943 53.9685H28.2202V50.2206H23.4418V44.9738H28.2202V41.2263H23.4418V37.4785H28.2202V33.731H19.6943V53.9685ZM44.0543 37.4785H47.1462V53.9685H50.8937V37.4785H53.9857V33.731H44.0543V37.4785ZM14.0666 44.4212L17.3216 53.9685H13.362L10.2957 44.9742H9.76287V53.9685H6.01501V33.731H11.6368C14.7365 33.731 17.2582 36.2528 17.2582 39.3524C17.2582 41.5823 15.953 43.513 14.0666 44.4212ZM9.76287 41.2263H11.6368C12.6699 41.2263 13.5104 40.3855 13.5104 39.3524C13.5104 38.3193 12.6699 37.4785 11.6368 37.4785H9.76287V41.2263ZM37.9641 43.1797L34.5726 33.8409L34.4975 33.868V33.731H30.75V53.9685H34.4975V44.6131L37.8894 53.9523L37.9641 53.9252V53.9685H41.7119V33.731H37.9641V43.1797Z" fill="#3B3C45"/>
</mask>
<g mask="url(#mask0_103_58)">
<rect x="2.3996" y="31.1998" width="54.0008" height="25.2004" fill="#F7A804"/>
</g>
</svg>
