<svg width="60" height="60" viewBox="0 0 60 60" fill="none" xmlns="http://www.w3.org/2000/svg">
<path d="M53.9469 18.5043L50.7023 33.2131C50.3361 34.875 49.4081 36.3761 48.0897 37.4407C46.7673 38.5085 45.1014 39.0967 43.3993 39.0967C42.364 39.0967 41.5247 38.2573 41.5247 37.222C41.5247 36.1864 42.364 35.3474 43.3993 35.3474C45.1615 35.3474 46.6589 34.1378 47.0413 32.4056L50.2855 17.6968C50.5085 16.6857 51.5087 16.0466 52.5201 16.2697C53.5312 16.4927 54.1699 17.4932 53.9469 18.5043ZM48.9294 48.4698C48.9294 51.5193 46.4487 54 43.3993 54C40.3498 54 37.8691 51.5193 37.8691 48.4698C37.8691 47.8469 37.9742 47.2482 38.165 46.689H30.0747C30.2655 47.2482 30.3706 47.8469 30.3706 48.4698C30.3706 51.5193 27.8895 54 24.8401 54C21.791 54 19.3099 51.5193 19.3099 48.4698C19.3099 47.8469 19.415 47.2482 19.6058 46.689H18.8412C15.7405 46.689 13.2173 44.1661 13.2173 41.0651C13.2173 41.049 13.2195 41.0339 13.2198 41.0182C13.2195 41.0024 13.2173 40.9871 13.2173 40.9713C13.2173 38.6957 14.5767 36.7332 16.5249 35.8484L14.2965 15.3754C13.8662 12.1718 11.109 9.75842 7.87463 9.75842C6.83936 9.75842 6 8.91907 6 7.88379C6 6.84814 6.83936 6.00916 7.87463 6.00916C12.991 6.00916 17.3511 9.83459 18.0165 14.907L18.0212 14.9484L20.2419 35.3474H34.0261C35.0614 35.3474 35.9008 36.1868 35.9008 37.222C35.9008 38.2573 35.0614 39.0967 34.0261 39.0967H18.8412C17.8077 39.0967 16.9666 39.9375 16.9666 40.9713C16.9666 40.9871 16.9647 41.0024 16.9644 41.0182C16.9647 41.0339 16.9666 41.0493 16.9666 41.0651C16.9666 42.0989 17.8077 42.9397 18.8412 42.9397H43.3993C46.4487 42.9397 48.9294 45.4204 48.9294 48.4698ZM24.8401 46.689C23.8583 46.689 23.0592 47.4877 23.0592 48.4698C23.0592 49.452 23.8583 50.2507 24.8401 50.2507C25.8223 50.2507 26.621 49.452 26.621 48.4698C26.621 47.4877 25.8223 46.689 24.8401 46.689ZM45.1802 48.4698C45.1802 47.4877 44.3811 46.689 43.3993 46.689C42.4171 46.689 41.6184 47.4877 41.6184 48.4698C41.6184 49.452 42.4171 50.2507 43.3993 50.2507C44.3811 50.2507 45.1802 49.4517 45.1802 48.4698ZM21.7632 17.9524C21.0685 17.1848 21.1274 15.9994 21.895 15.3047L30.6306 7.39856C32.6741 5.53381 35.7528 5.53381 37.7963 7.39856L46.5319 15.3047C47.2994 15.9994 47.3584 17.1848 46.6637 17.9524C46.2938 18.3615 45.7844 18.5691 45.2732 18.5691C44.9147 18.5691 44.5558 18.4651 44.2427 18.2582V23.5983C44.2427 26.5104 41.8751 28.8798 38.9652 28.8798H29.3679C26.458 28.8798 24.0905 26.5104 24.0905 23.5983V18.3175C23.3412 18.7507 22.3671 18.6196 21.7632 17.9524ZM27.8339 14.9865C27.8361 15.0245 27.8397 15.0626 27.8397 15.1011V23.5979C27.8397 24.4431 28.5253 25.1305 29.3679 25.1305H38.9652C39.8079 25.1305 40.4934 24.4431 40.4934 23.5979V15.1011C40.4934 15.0352 40.4971 14.97 40.5037 14.9059L35.2771 10.1755C35.2749 10.1733 35.2723 10.1711 35.2701 10.1689C34.6677 9.61853 33.7592 9.61853 33.1567 10.1689C33.1545 10.1711 33.1523 10.1733 33.1501 10.1755L27.8339 14.9865Z" fill="#3B3C45"/>
<mask id="mask0_103_57" style="mask-type:alpha" maskUnits="userSpaceOnUse" x="6" y="6" width="48" height="48">
<path d="M53.9469 18.5043L50.7023 33.2131C50.3361 34.875 49.4081 36.3761 48.0897 37.4407C46.7673 38.5085 45.1014 39.0967 43.3993 39.0967C42.364 39.0967 41.5247 38.2573 41.5247 37.222C41.5247 36.1864 42.364 35.3474 43.3993 35.3474C45.1615 35.3474 46.6589 34.1378 47.0413 32.4056L50.2855 17.6968C50.5085 16.6857 51.5087 16.0466 52.5201 16.2697C53.5312 16.4927 54.1699 17.4932 53.9469 18.5043ZM48.9294 48.4698C48.9294 51.5193 46.4487 54 43.3993 54C40.3498 54 37.8691 51.5193 37.8691 48.4698C37.8691 47.8469 37.9742 47.2482 38.165 46.689H30.0747C30.2655 47.2482 30.3706 47.8469 30.3706 48.4698C30.3706 51.5193 27.8895 54 24.8401 54C21.791 54 19.3099 51.5193 19.3099 48.4698C19.3099 47.8469 19.415 47.2482 19.6058 46.689H18.8412C15.7405 46.689 13.2173 44.1661 13.2173 41.0651C13.2173 41.049 13.2195 41.0339 13.2198 41.0182C13.2195 41.0024 13.2173 40.9871 13.2173 40.9713C13.2173 38.6957 14.5767 36.7332 16.5249 35.8484L14.2965 15.3754C13.8662 12.1718 11.109 9.75842 7.87463 9.75842C6.83936 9.75842 6 8.91907 6 7.88379C6 6.84814 6.83936 6.00916 7.87463 6.00916C12.991 6.00916 17.3511 9.83459 18.0165 14.907L18.0212 14.9484L20.2419 35.3474H34.0261C35.0614 35.3474 35.9008 36.1868 35.9008 37.222C35.9008 38.2573 35.0614 39.0967 34.0261 39.0967H18.8412C17.8077 39.0967 16.9666 39.9375 16.9666 40.9713C16.9666 40.9871 16.9647 41.0024 16.9644 41.0182C16.9647 41.0339 16.9666 41.0493 16.9666 41.0651C16.9666 42.0989 17.8077 42.9397 18.8412 42.9397H43.3993C46.4487 42.9397 48.9294 45.4204 48.9294 48.4698ZM24.8401 46.689C23.8583 46.689 23.0592 47.4877 23.0592 48.4698C23.0592 49.452 23.8583 50.2507 24.8401 50.2507C25.8223 50.2507 26.621 49.452 26.621 48.4698C26.621 47.4877 25.8223 46.689 24.8401 46.689ZM45.1802 48.4698C45.1802 47.4877 44.3811 46.689 43.3993 46.689C42.4171 46.689 41.6184 47.4877 41.6184 48.4698C41.6184 49.452 42.4171 50.2507 43.3993 50.2507C44.3811 50.2507 45.1802 49.4517 45.1802 48.4698ZM21.7632 17.9524C21.0685 17.1848 21.1274 15.9994 21.895 15.3047L30.6306 7.39856C32.6741 5.53381 35.7528 5.53381 37.7963 7.39856L46.5319 15.3047C47.2994 15.9994 47.3584 17.1848 46.6637 17.9524C46.2938 18.3615 45.7844 18.5691 45.2732 18.5691C44.9147 18.5691 44.5558 18.4651 44.2427 18.2582V23.5983C44.2427 26.5104 41.8751 28.8798 38.9652 28.8798H29.3679C26.458 28.8798 24.0905 26.5104 24.0905 23.5983V18.3175C23.3412 18.7507 22.3671 18.6196 21.7632 17.9524ZM27.8339 14.9865C27.8361 15.0245 27.8397 15.0626 27.8397 15.1011V23.5979C27.8397 24.4431 28.5253 25.1305 29.3679 25.1305H38.9652C39.8079 25.1305 40.4934 24.4431 40.4934 23.5979V15.1011C40.4934 15.0352 40.4971 14.97 40.5037 14.9059L35.2771 10.1755C35.2749 10.1733 35.2723 10.1711 35.2701 10.1689C34.6677 9.61853 33.7592 9.61853 33.1567 10.1689C33.1545 10.1711 33.1523 10.1733 33.1501 10.1755L27.8339 14.9865Z" fill="#3B3C45"/>
</mask>
<g mask="url(#mask0_103_57)">
<rect x="21" y="-2" width="26" height="32" fill="#F7A804"/>
</g>
</svg>
